# xmcd
#
# Track frame offsets:
#	150
#	16949
#	35717
#	56498
#	75847
#	97454
#	111373
#	129011
#	144257
#	161874
#	182116
#
# Disc length: 2653 seconds
#
# Revision: 0
# Processed by: cddbd v1.5.2PL0 Copyright (c) Steve Scherf et al.
# Submitted via: EZCDAudioConverter 5.0.5.1
#
DISCID=8d0a5b0b
DTITLE=Puttes Bluesband - Alltid en början
DYEAR=1900
DGENRE=Bluesrock
TTITLE0=Tattoo'd Lady
TTITLE1=Killing Floor
TTITLE2=Fem Långa År
TTITLE3=I Smell Smoke
TTITLE4=Edged In Blue
TTITLE5=Look What You Done
TTITLE6=It's All Over Now
TTITLE7=Otursda'n
TTITLE8=For The Last Run
TTITLE9=A Million Miles Away
TTITLE10=Shadow Play
EXTD=
EXTT0=
EXTT1=
EXTT2=
EXTT3=
EXTT4=
EXTT5=
EXTT6=
EXTT7=
EXTT8=
EXTT9=
EXTT10=
PLAYORDER=
